<mxfile host="app.diagrams.net" agent="Mozilla/5.0 (Windows NT 10.0; Win64; x64) AppleWebKit/537.36 (KHTML, like Gecko) Chrome/141.0.0.0 Safari/537.36 Edg/141.0.0.0" version="28.2.7">
  <diagram name="Page-1" id="c7558073-3199-34d8-9f00-42111426c3f3">
    <mxGraphModel dx="3293" dy="1447" grid="0" gridSize="10" guides="1" tooltips="1" connect="1" arrows="1" fold="1" page="0" pageScale="1" pageWidth="826" pageHeight="1169" background="none" math="0" shadow="0">
      <root>
        <mxCell id="0" />
        <mxCell id="1" parent="0" />
        <mxCell id="vUThGQG-6GFtNtN1PETl-96" value="HAL3应用层" style="rounded=1;whiteSpace=wrap;html=1;fillColor=#e1d5e7;strokeColor=#9673a6;" vertex="1" parent="1">
          <mxGeometry x="144" y="156" width="120" height="35" as="geometry" />
        </mxCell>
        <mxCell id="vUThGQG-6GFtNtN1PETl-111" value="" style="edgeStyle=orthogonalEdgeStyle;rounded=0;orthogonalLoop=1;jettySize=auto;html=1;" edge="1" parent="1" source="vUThGQG-6GFtNtN1PETl-99" target="vUThGQG-6GFtNtN1PETl-110">
          <mxGeometry relative="1" as="geometry" />
        </mxCell>
        <mxCell id="vUThGQG-6GFtNtN1PETl-112" value="&lt;font style=&quot;font-size: 10px; color: rgb(126, 166, 224);&quot;&gt;解析OPCODE&lt;/font&gt;" style="edgeLabel;html=1;align=center;verticalAlign=middle;resizable=0;points=[];" vertex="1" connectable="0" parent="vUThGQG-6GFtNtN1PETl-111">
          <mxGeometry x="-0.0388" relative="1" as="geometry">
            <mxPoint y="-2" as="offset" />
          </mxGeometry>
        </mxCell>
        <mxCell id="vUThGQG-6GFtNtN1PETl-99" value="CAMX框架" style="whiteSpace=wrap;html=1;fillColor=#e1d5e7;strokeColor=#9673a6;rounded=0;" vertex="1" parent="1">
          <mxGeometry x="144" y="251" width="120" height="34" as="geometry" />
        </mxCell>
        <mxCell id="vUThGQG-6GFtNtN1PETl-102" value="" style="endArrow=classic;html=1;rounded=0;entryX=0.5;entryY=0;entryDx=0;entryDy=0;exitX=0.5;exitY=1;exitDx=0;exitDy=0;" edge="1" parent="1" source="vUThGQG-6GFtNtN1PETl-96" target="vUThGQG-6GFtNtN1PETl-99">
          <mxGeometry relative="1" as="geometry">
            <mxPoint x="220" y="216" as="sourcePoint" />
            <mxPoint x="380" y="216" as="targetPoint" />
          </mxGeometry>
        </mxCell>
        <mxCell id="vUThGQG-6GFtNtN1PETl-103" value="&lt;font style=&quot;font-size: 10px; color: rgb(126, 166, 224);&quot;&gt;发送CaptureRequest&lt;/font&gt;" style="edgeLabel;resizable=0;html=1;;align=center;verticalAlign=middle;" connectable="0" vertex="1" parent="vUThGQG-6GFtNtN1PETl-102">
          <mxGeometry relative="1" as="geometry" />
        </mxCell>
        <mxCell id="vUThGQG-6GFtNtN1PETl-115" value="" style="edgeStyle=orthogonalEdgeStyle;rounded=0;orthogonalLoop=1;jettySize=auto;html=1;" edge="1" parent="1" source="vUThGQG-6GFtNtN1PETl-110" target="vUThGQG-6GFtNtN1PETl-114">
          <mxGeometry relative="1" as="geometry" />
        </mxCell>
        <mxCell id="vUThGQG-6GFtNtN1PETl-110" value="&lt;div style=&quot;font-size: 16px; line-height: 22px; white-space: pre;&quot;&gt;&lt;font face=&quot;Helvetica&quot; style=&quot;color: rgb(0, 0, 0);&quot;&gt;cam_sensor_apply_settings&lt;/font&gt;&lt;/div&gt;" style="whiteSpace=wrap;html=1;fillColor=#e1d5e7;strokeColor=#9673a6;rounded=0;" vertex="1" parent="1">
          <mxGeometry x="84.5" y="350" width="239" height="33" as="geometry" />
        </mxCell>
        <mxCell id="vUThGQG-6GFtNtN1PETl-124" style="edgeStyle=orthogonalEdgeStyle;rounded=0;orthogonalLoop=1;jettySize=auto;html=1;entryX=0.5;entryY=0;entryDx=0;entryDy=0;exitX=0;exitY=0.5;exitDx=0;exitDy=0;" edge="1" parent="1" source="vUThGQG-6GFtNtN1PETl-114" target="vUThGQG-6GFtNtN1PETl-117">
          <mxGeometry relative="1" as="geometry" />
        </mxCell>
        <mxCell id="vUThGQG-6GFtNtN1PETl-182" value="&lt;span&gt;&lt;font style=&quot;color: rgb(126, 166, 224); font-size: 12px;&quot;&gt;非帧请求 req_id=0&lt;/font&gt;&lt;/span&gt;" style="edgeLabel;html=1;align=center;verticalAlign=middle;resizable=0;points=[];" vertex="1" connectable="0" parent="vUThGQG-6GFtNtN1PETl-124">
          <mxGeometry x="-0.1468" relative="1" as="geometry">
            <mxPoint x="12" y="-9" as="offset" />
          </mxGeometry>
        </mxCell>
        <mxCell id="vUThGQG-6GFtNtN1PETl-190" style="edgeStyle=orthogonalEdgeStyle;rounded=0;orthogonalLoop=1;jettySize=auto;html=1;entryX=0.5;entryY=0;entryDx=0;entryDy=0;" edge="1" parent="1" source="vUThGQG-6GFtNtN1PETl-114" target="vUThGQG-6GFtNtN1PETl-118">
          <mxGeometry relative="1" as="geometry" />
        </mxCell>
        <mxCell id="vUThGQG-6GFtNtN1PETl-114" value="&lt;font&gt;判断请求类型&lt;/font&gt;" style="rhombus;whiteSpace=wrap;html=1;fillColor=#e1d5e7;strokeColor=#9673a6;rounded=0;" vertex="1" parent="1">
          <mxGeometry x="161" y="430" width="88" height="78" as="geometry" />
        </mxCell>
        <mxCell id="vUThGQG-6GFtNtN1PETl-130" style="edgeStyle=orthogonalEdgeStyle;rounded=0;orthogonalLoop=1;jettySize=auto;html=1;entryX=0;entryY=0.5;entryDx=0;entryDy=0;" edge="1" parent="1" source="vUThGQG-6GFtNtN1PETl-117" target="vUThGQG-6GFtNtN1PETl-129">
          <mxGeometry relative="1" as="geometry">
            <Array as="points">
              <mxPoint x="-21" y="665" />
            </Array>
          </mxGeometry>
        </mxCell>
        <mxCell id="vUThGQG-6GFtNtN1PETl-117" value="选择静态设置&lt;div&gt;stream/init/config&lt;/div&gt;" style="whiteSpace=wrap;html=1;fillColor=#e1d5e7;strokeColor=#9673a6;rounded=0;" vertex="1" parent="1">
          <mxGeometry x="-81" y="555" width="120" height="34" as="geometry" />
        </mxCell>
        <mxCell id="vUThGQG-6GFtNtN1PETl-191" style="edgeStyle=orthogonalEdgeStyle;rounded=0;orthogonalLoop=1;jettySize=auto;html=1;entryX=1;entryY=0.5;entryDx=0;entryDy=0;exitX=0.5;exitY=1;exitDx=0;exitDy=0;" edge="1" parent="1" source="vUThGQG-6GFtNtN1PETl-118" target="vUThGQG-6GFtNtN1PETl-129">
          <mxGeometry relative="1" as="geometry" />
        </mxCell>
        <mxCell id="vUThGQG-6GFtNtN1PETl-118" value="选择动态每帧设置&lt;div&gt;per_frame/frame_skip&lt;/div&gt;" style="whiteSpace=wrap;html=1;fillColor=#e1d5e7;strokeColor=#9673a6;rounded=0;" vertex="1" parent="1">
          <mxGeometry x="376" y="552" width="146" height="40" as="geometry" />
        </mxCell>
        <mxCell id="vUThGQG-6GFtNtN1PETl-133" value="" style="edgeStyle=orthogonalEdgeStyle;rounded=0;orthogonalLoop=1;jettySize=auto;html=1;" edge="1" parent="1" source="vUThGQG-6GFtNtN1PETl-129" target="vUThGQG-6GFtNtN1PETl-132">
          <mxGeometry relative="1" as="geometry" />
        </mxCell>
        <mxCell id="vUThGQG-6GFtNtN1PETl-129" value="&lt;div style=&quot;font-size: 16px; line-height: 22px; white-space: pre;&quot;&gt;获取 i2c_settings_array&lt;/div&gt;" style="whiteSpace=wrap;html=1;fillColor=#e1d5e7;strokeColor=#9673a6;rounded=0;" vertex="1" parent="1">
          <mxGeometry x="92" y="648" width="213" height="35" as="geometry" />
        </mxCell>
        <mxCell id="vUThGQG-6GFtNtN1PETl-135" value="" style="edgeStyle=orthogonalEdgeStyle;rounded=0;orthogonalLoop=1;jettySize=auto;html=1;" edge="1" parent="1" source="vUThGQG-6GFtNtN1PETl-132" target="vUThGQG-6GFtNtN1PETl-134">
          <mxGeometry relative="1" as="geometry" />
        </mxCell>
        <mxCell id="vUThGQG-6GFtNtN1PETl-132" value="&lt;font style=&quot;font-size: 16px;&quot;&gt;遍历 i2c_setting_list&lt;/font&gt;" style="whiteSpace=wrap;html=1;fillColor=#e1d5e7;strokeColor=#9673a6;rounded=0;" vertex="1" parent="1">
          <mxGeometry x="111.13" y="728" width="174.75" height="31" as="geometry" />
        </mxCell>
        <mxCell id="vUThGQG-6GFtNtN1PETl-137" value="" style="edgeStyle=orthogonalEdgeStyle;rounded=0;orthogonalLoop=1;jettySize=auto;html=1;" edge="1" parent="1" source="vUThGQG-6GFtNtN1PETl-134" target="vUThGQG-6GFtNtN1PETl-136">
          <mxGeometry relative="1" as="geometry" />
        </mxCell>
        <mxCell id="vUThGQG-6GFtNtN1PETl-134" value="&lt;font style=&quot;font-size: 16px;&quot;&gt;cam_sensor_i2c_modes_util&lt;/font&gt;" style="whiteSpace=wrap;html=1;fillColor=#e1d5e7;strokeColor=#9673a6;rounded=0;" vertex="1" parent="1">
          <mxGeometry x="80.63" y="815" width="235.75" height="41" as="geometry" />
        </mxCell>
        <mxCell id="vUThGQG-6GFtNtN1PETl-141" style="edgeStyle=orthogonalEdgeStyle;rounded=0;orthogonalLoop=1;jettySize=auto;html=1;exitX=0;exitY=0;exitDx=0;exitDy=0;entryX=0.5;entryY=0;entryDx=0;entryDy=0;" edge="1" parent="1" source="vUThGQG-6GFtNtN1PETl-136" target="vUThGQG-6GFtNtN1PETl-140">
          <mxGeometry relative="1" as="geometry" />
        </mxCell>
        <mxCell id="vUThGQG-6GFtNtN1PETl-143" style="edgeStyle=orthogonalEdgeStyle;rounded=0;orthogonalLoop=1;jettySize=auto;html=1;exitX=0;exitY=0.5;exitDx=0;exitDy=0;entryX=0.5;entryY=0;entryDx=0;entryDy=0;" edge="1" parent="1" source="vUThGQG-6GFtNtN1PETl-136" target="vUThGQG-6GFtNtN1PETl-142">
          <mxGeometry relative="1" as="geometry" />
        </mxCell>
        <mxCell id="vUThGQG-6GFtNtN1PETl-145" style="edgeStyle=orthogonalEdgeStyle;rounded=0;orthogonalLoop=1;jettySize=auto;html=1;exitX=0;exitY=1;exitDx=0;exitDy=0;entryX=0.5;entryY=0;entryDx=0;entryDy=0;" edge="1" parent="1" source="vUThGQG-6GFtNtN1PETl-136" target="vUThGQG-6GFtNtN1PETl-144">
          <mxGeometry relative="1" as="geometry">
            <Array as="points">
              <mxPoint x="55" y="975" />
            </Array>
          </mxGeometry>
        </mxCell>
        <mxCell id="vUThGQG-6GFtNtN1PETl-161" style="edgeStyle=orthogonalEdgeStyle;rounded=0;orthogonalLoop=1;jettySize=auto;html=1;exitX=1;exitY=1;exitDx=0;exitDy=0;entryX=0.5;entryY=0;entryDx=0;entryDy=0;" edge="1" parent="1" source="vUThGQG-6GFtNtN1PETl-136" target="vUThGQG-6GFtNtN1PETl-146">
          <mxGeometry relative="1" as="geometry">
            <Array as="points">
              <mxPoint x="371" y="975" />
            </Array>
          </mxGeometry>
        </mxCell>
        <mxCell id="vUThGQG-6GFtNtN1PETl-162" style="edgeStyle=orthogonalEdgeStyle;rounded=0;orthogonalLoop=1;jettySize=auto;html=1;entryX=0.5;entryY=0;entryDx=0;entryDy=0;" edge="1" parent="1" source="vUThGQG-6GFtNtN1PETl-136" target="vUThGQG-6GFtNtN1PETl-147">
          <mxGeometry relative="1" as="geometry" />
        </mxCell>
        <mxCell id="vUThGQG-6GFtNtN1PETl-163" style="edgeStyle=orthogonalEdgeStyle;rounded=0;orthogonalLoop=1;jettySize=auto;html=1;exitX=1;exitY=0;exitDx=0;exitDy=0;" edge="1" parent="1" source="vUThGQG-6GFtNtN1PETl-136" target="vUThGQG-6GFtNtN1PETl-148">
          <mxGeometry relative="1" as="geometry" />
        </mxCell>
        <mxCell id="vUThGQG-6GFtNtN1PETl-136" value="执行具体操作" style="rhombus;whiteSpace=wrap;html=1;fillColor=#e1d5e7;strokeColor=#9673a6;rounded=0;" vertex="1" parent="1">
          <mxGeometry x="150.75" y="917" width="95.5" height="77.5" as="geometry" />
        </mxCell>
        <mxCell id="vUThGQG-6GFtNtN1PETl-150" value="" style="edgeStyle=orthogonalEdgeStyle;rounded=0;orthogonalLoop=1;jettySize=auto;html=1;" edge="1" parent="1" source="vUThGQG-6GFtNtN1PETl-140" target="vUThGQG-6GFtNtN1PETl-149">
          <mxGeometry relative="1" as="geometry" />
        </mxCell>
        <mxCell id="vUThGQG-6GFtNtN1PETl-140" value="&lt;font style=&quot;font-size: 16px;&quot;&gt;随机写&lt;/font&gt;&lt;div&gt;&lt;font style=&quot;font-size: 16px; color: rgb(0, 0, 0);&quot;&gt;&lt;div style=&quot;font-family: Consolas, &amp;quot;Courier New&amp;quot;, monospace; line-height: 22px; white-space: pre;&quot;&gt;&lt;span&gt;CAM_SENSOR_I2C_WRITE_RANDOM&lt;/span&gt;&lt;/div&gt;&lt;/font&gt;&lt;/div&gt;" style="whiteSpace=wrap;html=1;fillColor=#e1d5e7;strokeColor=#9673a6;rounded=0;" vertex="1" parent="1">
          <mxGeometry x="-729" y="1045" width="272" height="56" as="geometry" />
        </mxCell>
        <mxCell id="vUThGQG-6GFtNtN1PETl-153" style="edgeStyle=orthogonalEdgeStyle;rounded=0;orthogonalLoop=1;jettySize=auto;html=1;exitX=0.75;exitY=1;exitDx=0;exitDy=0;entryX=0.25;entryY=0;entryDx=0;entryDy=0;" edge="1" parent="1" source="vUThGQG-6GFtNtN1PETl-142" target="vUThGQG-6GFtNtN1PETl-151">
          <mxGeometry relative="1" as="geometry" />
        </mxCell>
        <mxCell id="vUThGQG-6GFtNtN1PETl-142" value="&lt;span style=&quot;font-size: 16px;&quot;&gt;顺序写&lt;/span&gt;&lt;div&gt;&lt;div style=&quot;font-family: Consolas, &amp;quot;Courier New&amp;quot;, monospace; font-size: 16px; line-height: 22px; white-space: pre;&quot;&gt;&lt;span&gt;&lt;font style=&quot;color: rgb(0, 0, 0);&quot;&gt;CAM_SENSOR_I2C_WRITE_SEQ&lt;/font&gt;&lt;/span&gt;&lt;/div&gt;&lt;/div&gt;" style="whiteSpace=wrap;html=1;fillColor=#e1d5e7;strokeColor=#9673a6;rounded=0;" vertex="1" parent="1">
          <mxGeometry x="-379" y="1045" width="272" height="56" as="geometry" />
        </mxCell>
        <mxCell id="vUThGQG-6GFtNtN1PETl-144" value="&lt;span style=&quot;font-size: 16px;&quot;&gt;burst写&lt;/span&gt;&lt;div&gt;&lt;div style=&quot;font-family: Consolas, &amp;quot;Courier New&amp;quot;, monospace; font-size: 16px; line-height: 22px; white-space: pre;&quot;&gt;&lt;span&gt;&lt;font style=&quot;color: rgb(0, 0, 0);&quot;&gt;CAM_SENSOR_I2C_WRITE_BURST&lt;/font&gt;&lt;/span&gt;&lt;/div&gt;&lt;/div&gt;" style="whiteSpace=wrap;html=1;fillColor=#e1d5e7;strokeColor=#9673a6;rounded=0;" vertex="1" parent="1">
          <mxGeometry x="-81" y="1045" width="272" height="56" as="geometry" />
        </mxCell>
        <mxCell id="vUThGQG-6GFtNtN1PETl-156" value="" style="edgeStyle=orthogonalEdgeStyle;rounded=0;orthogonalLoop=1;jettySize=auto;html=1;" edge="1" parent="1" source="vUThGQG-6GFtNtN1PETl-146" target="vUThGQG-6GFtNtN1PETl-155">
          <mxGeometry relative="1" as="geometry" />
        </mxCell>
        <mxCell id="vUThGQG-6GFtNtN1PETl-146" value="&lt;span style=&quot;font-size: 16px;&quot;&gt;轮询&lt;/span&gt;&lt;br&gt;&lt;div&gt;&lt;font style=&quot;font-size: 16px; color: rgb(0, 0, 0);&quot;&gt;&lt;div style=&quot;font-family: Consolas, &amp;quot;Courier New&amp;quot;, monospace; line-height: 22px; white-space: pre;&quot;&gt;&lt;div style=&quot;line-height: 22px;&quot;&gt;&lt;span&gt;CAM_SENSOR_I2C_POLL&lt;/span&gt;&lt;/div&gt;&lt;/div&gt;&lt;/font&gt;&lt;/div&gt;" style="whiteSpace=wrap;html=1;fillColor=#e1d5e7;strokeColor=#9673a6;rounded=0;" vertex="1" parent="1">
          <mxGeometry x="235" y="1045" width="272" height="56" as="geometry" />
        </mxCell>
        <mxCell id="vUThGQG-6GFtNtN1PETl-158" value="" style="edgeStyle=orthogonalEdgeStyle;rounded=0;orthogonalLoop=1;jettySize=auto;html=1;" edge="1" parent="1" source="vUThGQG-6GFtNtN1PETl-147" target="vUThGQG-6GFtNtN1PETl-157">
          <mxGeometry relative="1" as="geometry" />
        </mxCell>
        <mxCell id="vUThGQG-6GFtNtN1PETl-147" value="&lt;span style=&quot;font-size: 16px;&quot;&gt;随机读&lt;/span&gt;&lt;br&gt;&lt;div&gt;&lt;font style=&quot;font-size: 16px; color: rgb(0, 0, 0);&quot;&gt;&lt;div style=&quot;font-family: Consolas, &amp;quot;Courier New&amp;quot;, monospace; line-height: 22px; white-space: pre;&quot;&gt;&lt;div style=&quot;line-height: 22px;&quot;&gt;&lt;div style=&quot;line-height: 22px;&quot;&gt;&lt;span&gt;CAM_SENSOR_I2C_READ_RANDOM&lt;/span&gt;&lt;/div&gt;&lt;/div&gt;&lt;/div&gt;&lt;/font&gt;&lt;/div&gt;" style="whiteSpace=wrap;html=1;fillColor=#e1d5e7;strokeColor=#9673a6;rounded=0;" vertex="1" parent="1">
          <mxGeometry x="551" y="1041" width="272" height="56" as="geometry" />
        </mxCell>
        <mxCell id="vUThGQG-6GFtNtN1PETl-160" value="" style="edgeStyle=orthogonalEdgeStyle;rounded=0;orthogonalLoop=1;jettySize=auto;html=1;" edge="1" parent="1" source="vUThGQG-6GFtNtN1PETl-148" target="vUThGQG-6GFtNtN1PETl-159">
          <mxGeometry relative="1" as="geometry" />
        </mxCell>
        <mxCell id="vUThGQG-6GFtNtN1PETl-148" value="&lt;span style=&quot;font-size: 16px;&quot;&gt;设置slave信息&lt;/span&gt;&lt;br&gt;&lt;div&gt;&lt;font style=&quot;font-size: 16px; color: rgb(0, 0, 0);&quot;&gt;&lt;div style=&quot;font-family: Consolas, &amp;quot;Courier New&amp;quot;, monospace; line-height: 22px; white-space: pre;&quot;&gt;&lt;div style=&quot;line-height: 22px;&quot;&gt;&lt;div style=&quot;line-height: 22px;&quot;&gt;&lt;div style=&quot;line-height: 22px;&quot;&gt;&lt;span&gt;CAM_SENSOR_I2C_SET_I2C_INFO&lt;/span&gt;&lt;/div&gt;&lt;/div&gt;&lt;/div&gt;&lt;/div&gt;&lt;/font&gt;&lt;/div&gt;" style="whiteSpace=wrap;html=1;fillColor=#e1d5e7;strokeColor=#9673a6;rounded=0;" vertex="1" parent="1">
          <mxGeometry x="867" y="1036" width="272" height="56" as="geometry" />
        </mxCell>
        <mxCell id="vUThGQG-6GFtNtN1PETl-166" style="edgeStyle=orthogonalEdgeStyle;rounded=0;orthogonalLoop=1;jettySize=auto;html=1;entryX=0;entryY=0.5;entryDx=0;entryDy=0;" edge="1" parent="1" source="vUThGQG-6GFtNtN1PETl-149" target="vUThGQG-6GFtNtN1PETl-164">
          <mxGeometry relative="1" as="geometry">
            <Array as="points">
              <mxPoint x="-593" y="1361" />
            </Array>
          </mxGeometry>
        </mxCell>
        <mxCell id="vUThGQG-6GFtNtN1PETl-149" value="&lt;div style=&quot;font-family: Consolas, &amp;quot;Courier New&amp;quot;, monospace; font-size: 16px; line-height: 22px; white-space: pre;&quot;&gt;&lt;span&gt;&lt;font style=&quot;color: rgb(0, 0, 0);&quot;&gt;camera_io_dev_write&lt;/font&gt;&lt;/span&gt;&lt;/div&gt;" style="whiteSpace=wrap;html=1;fillColor=#e1d5e7;strokeColor=#9673a6;rounded=0;" vertex="1" parent="1">
          <mxGeometry x="-693.5" y="1171" width="201" height="50" as="geometry" />
        </mxCell>
        <mxCell id="vUThGQG-6GFtNtN1PETl-165" style="edgeStyle=orthogonalEdgeStyle;rounded=0;orthogonalLoop=1;jettySize=auto;html=1;entryX=0;entryY=0;entryDx=0;entryDy=0;exitX=0.5;exitY=1;exitDx=0;exitDy=0;" edge="1" parent="1" source="vUThGQG-6GFtNtN1PETl-151" target="vUThGQG-6GFtNtN1PETl-164">
          <mxGeometry relative="1" as="geometry">
            <Array as="points">
              <mxPoint x="-103" y="1341" />
            </Array>
          </mxGeometry>
        </mxCell>
        <mxCell id="vUThGQG-6GFtNtN1PETl-151" value="&lt;div style=&quot;font-family: Consolas, &amp;quot;Courier New&amp;quot;, monospace; font-size: 16px; line-height: 22px; white-space: pre;&quot;&gt;&lt;span&gt;&lt;font style=&quot;color: rgb(0, 0, 0);&quot;&gt;camera_io_dev_write_continuous&lt;/font&gt;&lt;/span&gt;&lt;/div&gt;" style="whiteSpace=wrap;html=1;fillColor=#e1d5e7;strokeColor=#9673a6;rounded=0;" vertex="1" parent="1">
          <mxGeometry x="-248" y="1168" width="290" height="56" as="geometry" />
        </mxCell>
        <mxCell id="vUThGQG-6GFtNtN1PETl-154" style="edgeStyle=orthogonalEdgeStyle;rounded=0;orthogonalLoop=1;jettySize=auto;html=1;exitX=0.25;exitY=1;exitDx=0;exitDy=0;entryX=0.811;entryY=0.029;entryDx=0;entryDy=0;entryPerimeter=0;" edge="1" parent="1" source="vUThGQG-6GFtNtN1PETl-144" target="vUThGQG-6GFtNtN1PETl-151">
          <mxGeometry relative="1" as="geometry" />
        </mxCell>
        <mxCell id="vUThGQG-6GFtNtN1PETl-170" style="edgeStyle=orthogonalEdgeStyle;rounded=0;orthogonalLoop=1;jettySize=auto;html=1;entryX=0.5;entryY=0;entryDx=0;entryDy=0;" edge="1" parent="1" source="vUThGQG-6GFtNtN1PETl-155" target="vUThGQG-6GFtNtN1PETl-164">
          <mxGeometry relative="1" as="geometry" />
        </mxCell>
        <mxCell id="vUThGQG-6GFtNtN1PETl-155" value="&lt;div style=&quot;font-family: Consolas, &amp;quot;Courier New&amp;quot;, monospace; font-size: 16px; line-height: 22px; white-space: pre;&quot;&gt;&lt;span&gt;&lt;font style=&quot;color: rgb(0, 0, 0);&quot;&gt;camera_io_dev_poll&lt;/font&gt;&lt;/span&gt;&lt;/div&gt;" style="whiteSpace=wrap;html=1;fillColor=#e1d5e7;strokeColor=#9673a6;rounded=0;" vertex="1" parent="1">
          <mxGeometry x="276.5" y="1168" width="189" height="53" as="geometry" />
        </mxCell>
        <mxCell id="vUThGQG-6GFtNtN1PETl-171" style="edgeStyle=orthogonalEdgeStyle;rounded=0;orthogonalLoop=1;jettySize=auto;html=1;entryX=1;entryY=0;entryDx=0;entryDy=0;" edge="1" parent="1" source="vUThGQG-6GFtNtN1PETl-157" target="vUThGQG-6GFtNtN1PETl-164">
          <mxGeometry relative="1" as="geometry">
            <Array as="points">
              <mxPoint x="688" y="1341" />
            </Array>
          </mxGeometry>
        </mxCell>
        <mxCell id="vUThGQG-6GFtNtN1PETl-157" value="&lt;div style=&quot;font-family: Consolas, &amp;quot;Courier New&amp;quot;, monospace; font-size: 16px; line-height: 22px; white-space: pre;&quot;&gt;&lt;span&gt;&lt;font style=&quot;color: rgb(0, 0, 0);&quot;&gt;cam_sensor_i2c_read_data&lt;/font&gt;&lt;/span&gt;&lt;/div&gt;" style="whiteSpace=wrap;html=1;fillColor=#e1d5e7;strokeColor=#9673a6;rounded=0;" vertex="1" parent="1">
          <mxGeometry x="560.75" y="1167" width="252.5" height="55" as="geometry" />
        </mxCell>
        <mxCell id="vUThGQG-6GFtNtN1PETl-172" style="edgeStyle=orthogonalEdgeStyle;rounded=0;orthogonalLoop=1;jettySize=auto;html=1;entryX=1;entryY=0.5;entryDx=0;entryDy=0;" edge="1" parent="1" source="vUThGQG-6GFtNtN1PETl-159" target="vUThGQG-6GFtNtN1PETl-164">
          <mxGeometry relative="1" as="geometry">
            <Array as="points">
              <mxPoint x="1003" y="1361" />
            </Array>
          </mxGeometry>
        </mxCell>
        <mxCell id="vUThGQG-6GFtNtN1PETl-159" value="&lt;div style=&quot;font-family: Consolas, &amp;quot;Courier New&amp;quot;, monospace; font-size: 16px; line-height: 22px; white-space: pre;&quot;&gt;&lt;span&gt;&lt;font style=&quot;color: rgb(0, 0, 0);&quot;&gt;cam_sensor_update_i2c_info&lt;/font&gt;&lt;/span&gt;&lt;/div&gt;" style="whiteSpace=wrap;html=1;fillColor=#e1d5e7;strokeColor=#9673a6;rounded=0;" vertex="1" parent="1">
          <mxGeometry x="881" y="1167" width="244" height="55" as="geometry" />
        </mxCell>
        <mxCell id="vUThGQG-6GFtNtN1PETl-176" style="edgeStyle=orthogonalEdgeStyle;rounded=0;orthogonalLoop=1;jettySize=auto;html=1;exitX=0;exitY=1;exitDx=0;exitDy=0;entryX=0.5;entryY=0;entryDx=0;entryDy=0;" edge="1" parent="1" source="vUThGQG-6GFtNtN1PETl-164" target="vUThGQG-6GFtNtN1PETl-173">
          <mxGeometry relative="1" as="geometry" />
        </mxCell>
        <mxCell id="vUThGQG-6GFtNtN1PETl-177" value="&lt;div style=&quot;font-family: Consolas, &amp;quot;Courier New&amp;quot;, monospace; font-size: 16px; line-height: 22px; white-space-collapse: preserve;&quot;&gt;&lt;span&gt;&lt;font style=&quot;color: rgb(126, 166, 224);&quot;&gt;CCI_MASTER&lt;/font&gt;&lt;/span&gt;&lt;/div&gt;" style="edgeLabel;html=1;align=center;verticalAlign=middle;resizable=0;points=[];" vertex="1" connectable="0" parent="vUThGQG-6GFtNtN1PETl-176">
          <mxGeometry x="-0.1421" relative="1" as="geometry">
            <mxPoint x="1" as="offset" />
          </mxGeometry>
        </mxCell>
        <mxCell id="vUThGQG-6GFtNtN1PETl-178" style="edgeStyle=orthogonalEdgeStyle;rounded=0;orthogonalLoop=1;jettySize=auto;html=1;" edge="1" parent="1" source="vUThGQG-6GFtNtN1PETl-164" target="vUThGQG-6GFtNtN1PETl-174">
          <mxGeometry relative="1" as="geometry" />
        </mxCell>
        <mxCell id="vUThGQG-6GFtNtN1PETl-179" value="&lt;div style=&quot;font-family: Consolas, &amp;quot;Courier New&amp;quot;, monospace; font-size: 16px; line-height: 22px; white-space-collapse: preserve;&quot;&gt;&lt;span&gt;&lt;font style=&quot;color: rgb(126, 166, 224);&quot;&gt;I2C_MASTER&lt;/font&gt;&lt;/span&gt;&lt;/div&gt;" style="edgeLabel;html=1;align=center;verticalAlign=middle;resizable=0;points=[];" vertex="1" connectable="0" parent="vUThGQG-6GFtNtN1PETl-178">
          <mxGeometry x="-0.06" y="-3" relative="1" as="geometry">
            <mxPoint y="1" as="offset" />
          </mxGeometry>
        </mxCell>
        <mxCell id="vUThGQG-6GFtNtN1PETl-180" style="edgeStyle=orthogonalEdgeStyle;rounded=0;orthogonalLoop=1;jettySize=auto;html=1;exitX=1;exitY=1;exitDx=0;exitDy=0;" edge="1" parent="1" source="vUThGQG-6GFtNtN1PETl-164" target="vUThGQG-6GFtNtN1PETl-175">
          <mxGeometry relative="1" as="geometry" />
        </mxCell>
        <mxCell id="vUThGQG-6GFtNtN1PETl-181" value="&lt;div style=&quot;font-family: Consolas, &amp;quot;Courier New&amp;quot;, monospace; font-size: 16px; line-height: 22px; white-space-collapse: preserve;&quot;&gt;&lt;div style=&quot;line-height: 22px;&quot;&gt;&lt;span&gt;&lt;font style=&quot;color: rgb(126, 166, 224);&quot;&gt;I3C_MASTER&lt;/font&gt;&lt;/span&gt;&lt;/div&gt;&lt;/div&gt;" style="edgeLabel;html=1;align=center;verticalAlign=middle;resizable=0;points=[];" vertex="1" connectable="0" parent="vUThGQG-6GFtNtN1PETl-180">
          <mxGeometry x="-0.1834" y="-4" relative="1" as="geometry">
            <mxPoint x="3" y="-5" as="offset" />
          </mxGeometry>
        </mxCell>
        <mxCell id="vUThGQG-6GFtNtN1PETl-164" value="选择物理通道" style="rhombus;whiteSpace=wrap;html=1;fillColor=#e1d5e7;strokeColor=#9673a6;rounded=0;" vertex="1" parent="1">
          <mxGeometry x="150.75" y="1322" width="95.5" height="77.5" as="geometry" />
        </mxCell>
        <mxCell id="vUThGQG-6GFtNtN1PETl-173" value="&lt;div style=&quot;font-family: Consolas, &amp;quot;Courier New&amp;quot;, monospace; font-size: 16px; line-height: 22px; white-space: pre;&quot;&gt;&lt;span&gt;&lt;font style=&quot;color: rgb(0, 0, 0);&quot;&gt;CCI驱动&lt;/font&gt;&lt;/span&gt;&lt;/div&gt;" style="whiteSpace=wrap;html=1;fillColor=#e1d5e7;strokeColor=#9673a6;rounded=0;" vertex="1" parent="1">
          <mxGeometry x="-349" y="1483" width="290" height="56" as="geometry" />
        </mxCell>
        <mxCell id="vUThGQG-6GFtNtN1PETl-174" value="&lt;div style=&quot;font-family: Consolas, &amp;quot;Courier New&amp;quot;, monospace; font-size: 16px; line-height: 22px; white-space: pre;&quot;&gt;&lt;span&gt;&lt;font style=&quot;color: rgb(0, 0, 0);&quot;&gt;QUP_I2C驱动&lt;/font&gt;&lt;/span&gt;&lt;/div&gt;" style="whiteSpace=wrap;html=1;fillColor=#e1d5e7;strokeColor=#9673a6;rounded=0;" vertex="1" parent="1">
          <mxGeometry x="53.5" y="1483" width="290" height="56" as="geometry" />
        </mxCell>
        <mxCell id="vUThGQG-6GFtNtN1PETl-175" value="&lt;div style=&quot;font-family: Consolas, &amp;quot;Courier New&amp;quot;, monospace; font-size: 16px; line-height: 22px; white-space: pre;&quot;&gt;&lt;span&gt;&lt;font style=&quot;color: rgb(0, 0, 0);&quot;&gt;QUP_I3C驱动&lt;/font&gt;&lt;/span&gt;&lt;/div&gt;" style="whiteSpace=wrap;html=1;fillColor=#e1d5e7;strokeColor=#9673a6;rounded=0;" vertex="1" parent="1">
          <mxGeometry x="481" y="1480" width="290" height="59" as="geometry" />
        </mxCell>
        <mxCell id="vUThGQG-6GFtNtN1PETl-187" value="&lt;span&gt;&lt;font style=&quot;color: rgb(126, 166, 224);&quot;&gt;帧请求 req &amp;gt; 0&lt;/font&gt;&lt;/span&gt;" style="text;html=1;whiteSpace=wrap;strokeColor=none;fillColor=none;align=center;verticalAlign=middle;rounded=0;" vertex="1" parent="1">
          <mxGeometry x="294" y="445" width="101" height="30" as="geometry" />
        </mxCell>
        <mxCell id="vUThGQG-6GFtNtN1PETl-194" value="" style="endArrow=none;dashed=1;html=1;rounded=0;" edge="1" parent="1">
          <mxGeometry width="50" height="50" relative="1" as="geometry">
            <mxPoint x="-718" y="1596" as="sourcePoint" />
            <mxPoint x="1102" y="1596" as="targetPoint" />
          </mxGeometry>
        </mxCell>
      </root>
    </mxGraphModel>
  </diagram>
</mxfile>
